<?xml version="1.0" encoding="UTF-8"?>
<svg width="38px" height="38px" viewBox="0 0 38 38" version="1.1" xmlns="http://www.w3.org/2000/svg" xmlns:xlink="http://www.w3.org/1999/xlink">
    <title>资源 1</title>
    <defs>
        <linearGradient x1="6.59375%" y1="93.40625%" x2="93.40625%" y2="6.59375%" id="linearGradient-1">
            <stop stop-color="#3846FF" offset="0%"></stop>
            <stop stop-color="#4D64FF" offset="100%"></stop>
        </linearGradient>
    </defs>
    <g id="申报分析" stroke="none" stroke-width="1" fill="none" fill-rule="evenodd">
        <g id="申报分析-学科竞争力分析" transform="translate(-24.000000, -15.000000)" fill-rule="nonzero">
            <g id="资源-1" transform="translate(24.000000, 15.000000)">
                <path d="M29.45,38 L8.55,38 C3.8296875,38 0,34.1703125 0,29.45 L0,8.55 C0,3.8296875 3.8296875,0 8.55,0 L29.45,0 C34.1703125,0 38,3.8296875 38,8.55 L38,29.45 C38,34.1703125 34.1703125,38 29.45,38 Z" id="路径" fill="url(#linearGradient-1)"></path>
                <path d="M7.3625,14.3390625 L16.6784375,10.3846875 C18.1628125,9.7553125 19.8371875,9.7553125 21.315625,10.3846875 L30.6315625,14.3390625 C31.1125,14.5409375 31.1125,15.2296875 30.6315625,15.4315625 L21.315625,19.3859375 C19.83125,20.0153125 18.156875,20.0153125 16.6784375,19.3859375 L7.3625,15.4315625 C6.8815625,15.2296875 6.8815625,14.5409375 7.3625,14.3390625 Z" id="路径" fill="#FFFFFF"></path>
                <path d="M21.8975,20.7515625 C20.9771875,21.1434375 19.9975,21.339375 19,21.339375 C18.0025,21.339375 17.0228125,21.1434375 16.1025,20.7515625 L10.94875,18.5665625 L10.94875,24.521875 C10.94875,25.115625 11.305,25.6559375 11.85125,25.8875 L16.565625,27.8884375 C17.3375,28.215 18.16875,28.38125 19,28.38125 C19.83125,28.38125 20.6625,28.215 21.434375,27.8884375 L26.14875,25.8875 C26.695,25.6559375 27.05125,25.115625 27.05125,24.521875 L27.05125,18.5665625 L21.8975,20.7515625 Z" id="路径" fill="#B6CBFF" opacity="0.803947085"></path>
            </g>
        </g>
    </g>
</svg>